<?xml version="1.0" standalone="no"?>
<!DOCTYPE svg PUBLIC "-//W3C//DTD SVG 20010904//EN"
 "http://www.w3.org/TR/2001/REC-SVG-20010904/DTD/svg10.dtd">
<svg version="1.0" xmlns="http://www.w3.org/2000/svg"
 width="519.000000pt" height="519.000000pt" viewBox="0 0 519.000000 519.000000"
 preserveAspectRatio="xMidYMid meet">
<metadata>
Created by potrace 1.11, written by Peter Selinger 2001-2013
</metadata>
<g transform="translate(0.000000,519.000000) scale(0.100000,-0.100000)"
fill="#000000" stroke="none">
<path d="M235 5022 c-36 -11 -67 -33 -111 -77 -50 -51 -66 -76 -90 -141 l-29
-79 0 -1680 c0 -1622 1 -1682 19 -1735 38 -110 109 -194 196 -233 55 -25 44
-24 885 -32 863 -7 1638 -16 1693 -18 23 -1 42 2 42 6 0 5 5 5 11 1 11 -6 120
-8 953 -15 l329 -2 101 -82 c56 -44 110 -88 121 -97 11 -10 65 -54 120 -98 55
-45 120 -98 144 -118 24 -20 53 -43 64 -51 12 -8 28 -22 37 -30 20 -20 34 -30
195 -161 72 -57 132 -107 135 -110 3 -3 30 -25 60 -50 30 -25 58 -49 61 -53 3
-5 8 -3 11 5 2 7 4 1034 4 2283 -1 2209 -2 2271 -20 2325 -42 121 -129 218
-220 245 -43 13 -353 15 -2355 14 -2104 0 -2310 -2 -2356 -17z"/>
</g>
</svg>
